<svg xmlns="http://www.w3.org/2000/svg" width="15" height="15" viewBox="0 0 15 15">
  <path fill="#F1F5FD" d="M5.0171371,12.0681818 C5.0171371,12.1301653 4.94758065,12.1797521 4.85987903,12.1797521 C4.76008065,12.1890496 4.69052419,12.1394628 4.69052419,12.0681818 C4.69052419,12.0061983 4.76008065,11.9566116 4.84778226,11.9566116 C4.93850806,11.947314 5.0171371,11.9969008 5.0171371,12.0681818 Z M4.0766129,11.928719 C4.05544355,11.9907025 4.11592742,12.0619835 4.20665323,12.0805785 C4.28528226,12.1115702 4.37600806,12.0805785 4.39415323,12.018595 C4.41229839,11.9566116 4.35483871,11.8853306 4.2641129,11.857438 C4.18548387,11.8357438 4.09778226,11.8667355 4.0766129,11.928719 Z M5.41330645,11.8760331 C5.32560484,11.8977273 5.26512097,11.9566116 5.27419355,12.0278926 C5.28326613,12.089876 5.36189516,12.1301653 5.45262097,12.1084711 C5.54032258,12.0867769 5.60080645,12.0278926 5.59173387,11.9659091 C5.58266129,11.9070248 5.50100806,11.8667355 5.41330645,11.8760331 Z M7.40322581,0 C3.20866935,0 0,3.26342975 0,7.56198347 C0,10.9989669 2.1108871,13.9400826 5.12600806,14.9752066 C5.51310484,15.0464876 5.64919355,14.8016529 5.64919355,14.6002066 C5.64919355,14.4080579 5.64012097,13.3481405 5.64012097,12.697314 C5.64012097,12.697314 3.52318548,13.1621901 3.07862903,11.7737603 C3.07862903,11.7737603 2.73387097,10.8719008 2.23790323,10.6394628 C2.23790323,10.6394628 1.5453629,10.1528926 2.28629032,10.1621901 C2.28629032,10.1621901 3.03931452,10.2241736 3.45362903,10.9617769 C4.11592742,12.1580579 5.22580645,11.8140496 5.65826613,11.6095041 C5.72782258,11.1136364 5.92439516,10.7696281 6.1421371,10.5650826 C4.4516129,10.3729339 2.74596774,10.1219008 2.74596774,7.14049587 C2.74596774,6.28822314 2.97580645,5.86053719 3.45967742,5.31508264 C3.38104839,5.11363636 3.12399194,4.28305785 3.53830645,3.2107438 C4.1703629,3.00929752 5.625,4.04752066 5.625,4.04752066 C6.22983871,3.87396694 6.88004032,3.78409091 7.52419355,3.78409091 C8.16834677,3.78409091 8.81854839,3.87396694 9.4233871,4.04752066 C9.4233871,4.04752066 10.8780242,3.00619835 11.5100806,3.2107438 C11.9243952,4.28615702 11.6673387,5.11363636 11.5887097,5.31508264 C12.0725806,5.86363636 12.3689516,6.29132231 12.3689516,7.14049587 C12.3689516,10.1311983 10.5877016,10.3698347 8.89717742,10.5650826 C9.17540323,10.8099174 9.41129032,11.2747934 9.41129032,12.0030992 C9.41129032,13.0475207 9.40221774,14.339876 9.40221774,14.5940083 C9.40221774,14.7954545 9.54133065,15.0402893 9.92540323,14.9690083 C12.9495968,13.9400826 15,10.9989669 15,7.56198347 C15,3.26342975 11.5977823,0 7.40322581,0 Z M2.93951613,10.6890496 C2.90020161,10.7200413 2.90927419,10.7913223 2.96068548,10.8502066 C3.00907258,10.8997934 3.07862903,10.9214876 3.11794355,10.8811983 C3.15725806,10.8502066 3.14818548,10.7789256 3.09677419,10.7200413 C3.0483871,10.6704545 2.97883065,10.6487603 2.93951613,10.6890496 Z M2.61290323,10.4380165 C2.59173387,10.4783058 2.62197581,10.5278926 2.68245968,10.5588843 C2.73084677,10.589876 2.79133065,10.5805785 2.8125,10.5371901 C2.83366935,10.4969008 2.80342742,10.447314 2.74294355,10.4163223 C2.68245968,10.3977273 2.63407258,10.4070248 2.61290323,10.4380165 Z M3.59274194,11.5413223 C3.54435484,11.5816116 3.5625,11.6745868 3.63205645,11.7334711 C3.7016129,11.8047521 3.78931452,11.8140496 3.82862903,11.7644628 C3.86794355,11.7241736 3.84979839,11.6311983 3.78931452,11.572314 C3.72278226,11.5010331 3.63205645,11.4917355 3.59274194,11.5413223 Z M3.24798387,11.0857438 C3.19959677,11.1167355 3.19959677,11.197314 3.24798387,11.268595 C3.29637097,11.339876 3.37802419,11.3708678 3.41733871,11.339876 C3.46572581,11.2995868 3.46572581,11.2190083 3.41733871,11.1477273 C3.375,11.0764463 3.29637097,11.0454545 3.24798387,11.0857438 Z"/>
</svg>
