<?xml version="1.0"?>
<svg xmlns="http://www.w3.org/2000/svg" xmlns:xlink="http://www.w3.org/1999/xlink" version="1.1" viewBox="0 0 192 192" width="50px" height="50px"><g fill="none" fill-rule="nonzero" stroke="none" stroke-width="1" stroke-linecap="butt" stroke-linejoin="miter" stroke-miterlimit="10" stroke-dasharray="" stroke-dashoffset="0" font-family="none" font-weight="none" font-size="none" text-anchor="none" style="mix-blend-mode: normal"><path d="M0,192v-192h192v192z" fill="none"/><g fill="#ffffff"><path d="M96,7.68c-48.73231,0 -88.32,39.58769 -88.32,88.32c0,48.73231 39.58769,88.32 88.32,88.32c48.73231,0 88.32,-39.58769 88.32,-88.32c0,-48.73231 -39.58769,-88.32 -88.32,-88.32zM96,15.36c44.58172,0 80.64,36.05828 80.64,80.64c0,44.58172 -36.05828,80.64 -80.64,80.64c-44.58172,0 -80.64,-36.05828 -80.64,-80.64c0,-44.58172 36.05828,-80.64 80.64,-80.64zM97.11,48.03c-14.3232,0 -23.82024,8.67888 -25.89,21.9c-0.1344,0.82944 0.27306,1.37676 1.1025,1.515l8.6775,1.5225c0.82944,0.13824 1.37676,-0.2769 1.515,-1.1025c1.6512,-8.40192 6.60678,-13.0875 14.3175,-13.0875c7.8528,0 13.3575,4.96104 13.3575,12.81c0,4.6848 -1.64964,7.85136 -6.465,14.46l-9.2325,12.6675c-2.89152,3.99744 -4.125,6.89076 -4.125,12.405v5.64c0,0.8256 0.5469,1.38036 1.3725,1.365h9.09c0.8256,0 1.3725,-0.5469 1.3725,-1.3725v-4.4025c0,-4.68096 0.83172,-6.61038 3.585,-10.3275l9.225,-12.675c4.6848,-6.47424 7.02,-11.29002 7.02,-17.9025c0,-13.63584 -10.05402,-23.415 -24.9225,-23.415zM91.0575,128.61c-0.82944,0 -1.38,0.5544 -1.38,1.38v11.8425c0,0.8256 0.54672,1.3725 1.38,1.3725h10.47c0.82176,0 1.3725,-0.54306 1.3725,-1.3725v-11.8425c0,-0.82176 -0.5469,-1.38 -1.3725,-1.38z"/></g></g></svg>
