<svg xmlns="http://www.w3.org/2000/svg" width="340" height="91" viewBox="0 0 340 91">
  <path fill="#FFF" fill-rule="evenodd" d="M229.335558,19 L242.399068,19 L198.251327,76.7991914 L247.313274,76.7991914 C248.092039,76.7991914 248.734511,77.0336904 249.240708,77.5026954 C249.746905,77.9717005 250,78.6751975 250,79.6132075 L250,84.3032345 C250,85.0067421 249.746905,85.6320727 249.240708,86.1792453 C248.734511,86.7264178 248.092039,87 247.313274,87 L186.80354,87 C186.024775,87 185.362835,86.7459594 184.817699,86.2378706 C184.272564,85.7297818 184,85.0849096 184,84.3032345 L184,79.0269542 C184,78.7142842 184.038938,78.3820772 184.116814,78.0303235 C184.194691,77.6785697 184.428317,77.3072796 184.817699,76.916442 L229.335558,19 Z M234.342437,10.2008086 L188.088496,10.2008086 C186.21946,10.2008086 185.284956,9.30189578 185.284956,7.50404313 L185.284956,2.57951482 C185.284956,0.859829677 186.21946,5.68434189e-14 188.088496,5.68434189e-14 L247.079646,5.68434189e-14 C247.858411,5.68434189e-14 248.520351,0.234499003 249.065487,0.703504043 C249.610622,1.17250908 249.883186,1.83692292 249.883186,2.6967655 L249.883186,8.0902965 C249.883186,8.87197156 249.688498,9.49730224 249.299115,9.96630728 L249.27338,10 L234.487179,10 L234.342437,10.2008086 Z M100,83.6923077 L100,4 L126.5,4 C149.972102,4 169,23.0278981 169,46.5 L169,84.2820513 C169,86.8877024 166.887702,89 164.282051,89 C161.6764,89 159.564103,86.8877024 159.564103,84.2820513 L159.564103,51.8125 C159.564103,31.2744109 142.914692,14.625 122.376603,14.625 L110.615385,14.625 L110.615385,83.6923077 C110.615385,86.6236652 108.23905,89 105.307692,89 C102.376335,89 100,86.6236652 100,83.6923077 Z M271,7.30769231 C271,4.37633479 273.376335,2 276.307692,2 C279.23905,2 281.615385,4.37633479 281.615385,7.30769231 L281.615385,51.6057692 C281.615385,65.2854376 292.704947,76.375 306.384615,76.375 C320.064284,76.375 331.153846,65.2854376 331.153846,51.6057692 L331.153846,6.42307692 C331.153846,3.98027899 333.134125,2 335.576923,2 C338.019721,2 340,3.98027899 340,6.42307692 L340,52.5 C340,71.5538239 324.553824,87 305.5,87 C286.446176,87 271,71.5538239 271,52.5 L271,7.30769231 Z M42.6893096,13.8416051 L9.46547884,87.7106653 C8.61358575,89.7782471 7.00445434,91 4.63808463,91 C2.17706013,91 0,88.9324182 0,86.3949314 C0,85.5491024 0.189309577,84.7032735 0.662583519,83.6694826 L36.1581292,6.32312566 C37.3886414,3.59767687 39.2817372,2 42.4053452,2 L42.7839644,2 C45.7182628,2 47.8006682,3.69165787 48.8418708,6.32312566 L84.3374165,83.4815206 C84.7160356,84.3273495 85,85.1731785 85,85.9250264 C85,88.6504752 82.9175947,90.718057 80.1726058,90.718057 C77.9008909,90.718057 76.1971047,89.0263992 75.3452116,87.1467793 L42.6893096,13.8416051 Z"/>
</svg>
