<?xml version="1.0"?>
<svg xmlns="http://www.w3.org/2000/svg" xmlns:xlink="http://www.w3.org/1999/xlink" version="1.1" viewBox="0 0 192 192" width="64px" height="64px"><g fill="none" fill-rule="nonzero" stroke="none" stroke-width="1" stroke-linecap="butt" stroke-linejoin="miter" stroke-miterlimit="10" stroke-dasharray="" stroke-dashoffset="0" font-family="none" font-weight="none" font-size="none" text-anchor="none" style="mix-blend-mode: normal"><path d="M0,192v-192h192v192z" fill="none"/><g id="Layer_1"><g><g fill="#8a6bc3"><circle cx="64" cy="64" transform="scale(1.5,1.5)" r="50"/></g><g fill="#ffffff"><path d="M96,175.5c-43.8,0 -79.5,-35.7 -79.5,-79.5c0,-43.8 35.7,-79.5 79.5,-79.5c43.8,0 79.5,35.7 79.5,79.5c0,43.8 -35.7,79.5 -79.5,79.5zM96,25.5c-38.85,0 -70.5,31.65 -70.5,70.5c0,38.85 31.65,70.5 70.5,70.5c38.85,0 70.5,-31.65 70.5,-70.5c0,-38.85 -31.65,-70.5 -70.5,-70.5z"/></g></g><g fill="#ffffff"><path d="M129.75,78h-67.5c-2.55,0 -4.5,-1.95 -4.5,-4.5c0,-2.55 1.95,-4.5 4.5,-4.5h67.5c2.55,0 4.5,1.95 4.5,4.5c0,2.55 -1.95,4.5 -4.5,4.5z"/></g><g fill="#ffffff"><path d="M129.75,100.5h-67.5c-2.55,0 -4.5,-1.95 -4.5,-4.5c0,-2.55 1.95,-4.5 4.5,-4.5h67.5c2.55,0 4.5,1.95 4.5,4.5c0,2.55 -1.95,4.5 -4.5,4.5z"/></g><g fill="#ffffff"><path d="M129.75,123h-67.5c-2.55,0 -4.5,-1.95 -4.5,-4.5c0,-2.55 1.95,-4.5 4.5,-4.5h67.5c2.55,0 4.5,1.95 4.5,4.5c0,2.55 -1.95,4.5 -4.5,4.5z"/></g></g></g></svg>
